<mxfile host="app.diagrams.net" modified="2023-04-19T14:01:04.627Z" agent="Mozilla/5.0 (Windows NT 10.0; Win64; x64) AppleWebKit/537.36 (KHTML, like Gecko) Chrome/112.0.0.0 Safari/537.36" etag="McIPdQxakJo_CzF1NZbO" version="21.1.8" type="device">
  <diagram name="Página-1" id="B0N3mjhr7A4SLxWBV1Ps">
    <mxGraphModel dx="1120" dy="1653" grid="1" gridSize="10" guides="1" tooltips="1" connect="1" arrows="1" fold="1" page="1" pageScale="1" pageWidth="827" pageHeight="1169" math="0" shadow="0">
      <root>
        <mxCell id="0" />
        <mxCell id="1" parent="0" />
        <mxCell id="JPa3ECLchBMkoxADFZkH-1" value="" style="whiteSpace=wrap;html=1;" parent="1" vertex="1">
          <mxGeometry x="290" y="-1120" width="570" height="1000" as="geometry" />
        </mxCell>
        <mxCell id="JPa3ECLchBMkoxADFZkH-2" value="&lt;b&gt;GERENCIADOR DE SENHAS.&lt;/b&gt;" style="text;strokeColor=none;align=center;fillColor=none;html=1;verticalAlign=middle;whiteSpace=wrap;rounded=0;" parent="1" vertex="1">
          <mxGeometry x="500" y="-1110" width="170" height="30" as="geometry" />
        </mxCell>
        <mxCell id="JPa3ECLchBMkoxADFZkH-3" value="Registrar usuário." style="ellipse;whiteSpace=wrap;html=1;" parent="1" vertex="1">
          <mxGeometry x="500" y="-1060" width="130" height="80" as="geometry" />
        </mxCell>
        <mxCell id="JPa3ECLchBMkoxADFZkH-4" value="Gerenciar atendimentos" style="ellipse;whiteSpace=wrap;html=1;" parent="1" vertex="1">
          <mxGeometry x="500" y="-800" width="130" height="80" as="geometry" />
        </mxCell>
        <mxCell id="JPa3ECLchBMkoxADFZkH-5" value="Enviar registro para banco de dados." style="ellipse;whiteSpace=wrap;html=1;" parent="1" vertex="1">
          <mxGeometry x="500" y="-560" width="130" height="80" as="geometry" />
        </mxCell>
        <mxCell id="JPa3ECLchBMkoxADFZkH-6" value="Exibir senha gerada para o usuário" style="ellipse;whiteSpace=wrap;html=1;" parent="1" vertex="1">
          <mxGeometry x="500" y="-450" width="130" height="80" as="geometry" />
        </mxCell>
        <mxCell id="JPa3ECLchBMkoxADFZkH-7" value="Sistema" style="shape=umlActor;verticalLabelPosition=bottom;verticalAlign=top;html=1;outlineConnect=0;" parent="1" vertex="1">
          <mxGeometry x="120" y="-930" width="50" height="110" as="geometry" />
        </mxCell>
        <mxCell id="JPa3ECLchBMkoxADFZkH-8" value="Coordenador" style="shape=umlActor;verticalLabelPosition=bottom;verticalAlign=top;html=1;outlineConnect=0;" parent="1" vertex="1">
          <mxGeometry x="920" y="-940" width="60" height="120" as="geometry" />
        </mxCell>
        <mxCell id="JPa3ECLchBMkoxADFZkH-13" value="" style="endArrow=none;html=1;rounded=0;entryX=0;entryY=0.5;entryDx=0;entryDy=0;" parent="1" target="JPa3ECLchBMkoxADFZkH-3" edge="1">
          <mxGeometry width="50" height="50" relative="1" as="geometry">
            <mxPoint x="170.93" y="-891.15" as="sourcePoint" />
            <mxPoint x="335.00166698379047" y="-960.0017939169978" as="targetPoint" />
            <Array as="points">
              <mxPoint x="170.93" y="-891.15" />
            </Array>
          </mxGeometry>
        </mxCell>
        <mxCell id="JPa3ECLchBMkoxADFZkH-21" value="Verificar existência de prioridade" style="ellipse;whiteSpace=wrap;html=1;" parent="1" vertex="1">
          <mxGeometry x="740" y="-1050" width="120" height="70" as="geometry" />
        </mxCell>
        <mxCell id="JPa3ECLchBMkoxADFZkH-27" value="Exibir erro de preenchimento." style="ellipse;whiteSpace=wrap;html=1;" parent="1" vertex="1">
          <mxGeometry x="740" y="-960" width="120" height="70" as="geometry" />
        </mxCell>
        <mxCell id="JPa3ECLchBMkoxADFZkH-38" value="&amp;lt;&amp;lt;estender&amp;gt;&amp;gt;" style="endArrow=open;endSize=12;dashed=1;html=1;rounded=0;entryX=0.802;entryY=0.966;entryDx=0;entryDy=0;entryPerimeter=0;exitX=0;exitY=0.5;exitDx=0;exitDy=0;" parent="1" edge="1" source="JPa3ECLchBMkoxADFZkH-27">
          <mxGeometry width="160" relative="1" as="geometry">
            <mxPoint x="757.5111853104793" y="-910.2708342470521" as="sourcePoint" />
            <mxPoint x="588.2399999999998" y="-962.72" as="targetPoint" />
          </mxGeometry>
        </mxCell>
        <mxCell id="JPa3ECLchBMkoxADFZkH-39" value="&amp;lt;&amp;lt;inclui&amp;gt;&amp;gt;" style="endArrow=open;endSize=12;dashed=1;html=1;rounded=0;entryX=0;entryY=0.5;entryDx=0;entryDy=0;" parent="1" source="JPa3ECLchBMkoxADFZkH-3" target="JPa3ECLchBMkoxADFZkH-21" edge="1">
          <mxGeometry x="-0.1667" width="160" relative="1" as="geometry">
            <mxPoint x="596" y="-953" as="sourcePoint" />
            <mxPoint x="750" y="-910" as="targetPoint" />
            <Array as="points" />
            <mxPoint as="offset" />
          </mxGeometry>
        </mxCell>
        <mxCell id="Lob0jhMso05b4lUJMmRk-2" value="Gerar&amp;nbsp; senha para&amp;nbsp; o usuário." style="ellipse;whiteSpace=wrap;html=1;" vertex="1" parent="1">
          <mxGeometry x="500" y="-930" width="130" height="80" as="geometry" />
        </mxCell>
        <mxCell id="Lob0jhMso05b4lUJMmRk-3" value="Alertar usuário sobre convocação" style="ellipse;whiteSpace=wrap;html=1;" vertex="1" parent="1">
          <mxGeometry x="500" y="-330" width="130" height="80" as="geometry" />
        </mxCell>
        <mxCell id="Lob0jhMso05b4lUJMmRk-5" value="Armazenar atendimento." style="ellipse;whiteSpace=wrap;html=1;" vertex="1" parent="1">
          <mxGeometry x="500" y="-680" width="130" height="80" as="geometry" />
        </mxCell>
        <mxCell id="Lob0jhMso05b4lUJMmRk-12" value="Organizar conforme prioridade ou chegada." style="ellipse;whiteSpace=wrap;html=1;" vertex="1" parent="1">
          <mxGeometry x="760" y="-820" width="123" height="80" as="geometry" />
        </mxCell>
        <mxCell id="Lob0jhMso05b4lUJMmRk-15" value="&amp;lt;&amp;lt;inclui&amp;gt;&amp;gt;" style="endArrow=none;dashed=1;html=1;dashPattern=1 3;strokeWidth=2;rounded=0;" edge="1" parent="1" source="Lob0jhMso05b4lUJMmRk-12" target="JPa3ECLchBMkoxADFZkH-4">
          <mxGeometry width="50" height="50" relative="1" as="geometry">
            <mxPoint x="550" y="-840" as="sourcePoint" />
            <mxPoint x="600" y="-890" as="targetPoint" />
          </mxGeometry>
        </mxCell>
        <mxCell id="Lob0jhMso05b4lUJMmRk-18" value="" style="endArrow=none;html=1;rounded=0;entryX=0;entryY=0.5;entryDx=0;entryDy=0;" edge="1" parent="1" source="JPa3ECLchBMkoxADFZkH-7" target="Lob0jhMso05b4lUJMmRk-2">
          <mxGeometry width="50" height="50" relative="1" as="geometry">
            <mxPoint x="550" y="-840" as="sourcePoint" />
            <mxPoint x="600" y="-890" as="targetPoint" />
          </mxGeometry>
        </mxCell>
        <mxCell id="Lob0jhMso05b4lUJMmRk-19" value="" style="endArrow=none;html=1;rounded=0;" edge="1" parent="1" target="JPa3ECLchBMkoxADFZkH-4">
          <mxGeometry width="50" height="50" relative="1" as="geometry">
            <mxPoint x="180" y="-850" as="sourcePoint" />
            <mxPoint x="510" y="-880" as="targetPoint" />
          </mxGeometry>
        </mxCell>
        <mxCell id="Lob0jhMso05b4lUJMmRk-20" value="" style="endArrow=none;html=1;rounded=0;" edge="1" parent="1" target="Lob0jhMso05b4lUJMmRk-5">
          <mxGeometry width="50" height="50" relative="1" as="geometry">
            <mxPoint x="190" y="-820" as="sourcePoint" />
            <mxPoint x="514" y="-764" as="targetPoint" />
          </mxGeometry>
        </mxCell>
        <mxCell id="Lob0jhMso05b4lUJMmRk-21" value="" style="endArrow=none;html=1;rounded=0;" edge="1" parent="1" target="JPa3ECLchBMkoxADFZkH-5">
          <mxGeometry width="50" height="50" relative="1" as="geometry">
            <mxPoint x="180" y="-810" as="sourcePoint" />
            <mxPoint x="524" y="-655" as="targetPoint" />
            <Array as="points" />
          </mxGeometry>
        </mxCell>
        <mxCell id="Lob0jhMso05b4lUJMmRk-22" value="" style="endArrow=none;html=1;rounded=0;" edge="1" parent="1" target="JPa3ECLchBMkoxADFZkH-6">
          <mxGeometry width="50" height="50" relative="1" as="geometry">
            <mxPoint x="170" y="-790" as="sourcePoint" />
            <mxPoint x="534" y="-541" as="targetPoint" />
            <Array as="points" />
          </mxGeometry>
        </mxCell>
        <mxCell id="Lob0jhMso05b4lUJMmRk-23" value="" style="endArrow=none;html=1;rounded=0;" edge="1" parent="1" target="Lob0jhMso05b4lUJMmRk-3">
          <mxGeometry width="50" height="50" relative="1" as="geometry">
            <mxPoint x="150" y="-790" as="sourcePoint" />
            <mxPoint x="490" y="-447" as="targetPoint" />
            <Array as="points" />
          </mxGeometry>
        </mxCell>
      </root>
    </mxGraphModel>
  </diagram>
</mxfile>
